<svg width="497" height="123" viewBox="0 0 497 123" fill="none" xmlns="http://www.w3.org/2000/svg">
<mask id="mask0_7067_5054" style="mask-type:luminance" maskUnits="userSpaceOnUse" x="0" y="61" width="122" height="62">
<path d="M0 61.1719H121.5V122.281H0V61.1719Z" fill="white"/>
</mask>
<g mask="url(#mask0_7067_5054)">
<mask id="mask1_7067_5054" style="mask-type:luminance" maskUnits="userSpaceOnUse" x="0" y="61" width="122" height="62">
<path d="M0.072998 61.5472C0.072998 95.0472 27.2292 122.209 60.7292 122.209C94.2293 122.209 121.391 95.0472 121.391 61.5472L84.3647 61.2451C84.3647 74.2035 73.8595 84.7087 60.9011 84.7087C47.948 84.7087 37.4428 74.2035 37.4428 61.2451L0.072998 61.5472Z" fill="white"/>
</mask>
<g mask="url(#mask1_7067_5054)">
<path d="M0 122.281V61.1719H121.5V122.281H0Z" fill="#FF5656"/>
</g>
</g>
<mask id="mask2_7067_5054" style="mask-type:luminance" maskUnits="userSpaceOnUse" x="0" y="61" width="122" height="62">
<path d="M0 61.1719H121.5V122.521H0V61.1719Z" fill="white"/>
</mask>
<g mask="url(#mask2_7067_5054)">
<mask id="mask3_7067_5054" style="mask-type:luminance" maskUnits="userSpaceOnUse" x="0" y="61" width="122" height="62">
<path d="M121.469 61.4736V61.5465C121.469 69.7445 119.859 77.6976 116.693 85.1872C113.635 92.4163 109.255 98.9111 103.677 104.489C98.099 110.067 91.6042 114.448 84.375 117.505C76.8854 120.677 68.9323 122.281 60.7292 122.281C52.5313 122.281 44.5781 120.677 37.0938 117.51C29.8594 114.448 23.3646 110.073 17.7865 104.494C12.2083 98.9163 7.82813 92.4215 4.77083 85.1872C1.60417 77.7028 0 69.7445 0 61.5465V61.4736H0.0729167L37.5156 61.1768V61.2497C37.5156 67.4997 39.9531 73.3695 44.3646 77.7861C48.7865 82.2028 54.6563 84.6351 60.901 84.6351C67.151 84.6351 73.026 82.2028 77.4375 77.7861C81.8594 73.3695 84.2865 67.4997 84.2865 61.2497V61.1768H84.3646L121.469 61.4736ZM0.145833 61.6195C0.156251 69.7757 1.75521 77.6872 4.90625 85.1299C7.95833 92.3434 12.3281 98.8226 17.8906 104.39C23.4531 109.953 29.9323 114.323 37.151 117.375C44.6198 120.531 52.5521 122.135 60.7292 122.135C68.9115 122.135 76.8438 120.531 84.3125 117.375C91.526 114.323 98.0052 109.953 103.573 104.39C109.135 98.8278 113.505 92.3434 116.557 85.1299C119.703 77.6872 121.307 69.7757 121.318 61.6195L84.4375 61.3226C84.4167 67.5778 81.974 73.4632 77.5417 77.8903C73.099 82.333 67.1875 84.7809 60.901 84.7809C54.6198 84.7809 48.7083 82.333 44.2604 77.8903C39.8333 73.4632 37.3906 67.5778 37.3698 61.3226L0.145833 61.6195Z" fill="white"/>
</mask>
<g mask="url(#mask3_7067_5054)">
<path d="M0 122.281V61.1719H121.5V122.281H0Z" fill="#FF5656"/>
</g>
</g>
<mask id="mask4_7067_5054" style="mask-type:luminance" maskUnits="userSpaceOnUse" x="0" y="0" width="62" height="123">
<path d="M0 0.681641H61.1094V122.182H0V0.681641Z" fill="white"/>
</mask>
<g mask="url(#mask4_7067_5054)">
<mask id="mask5_7067_5054" style="mask-type:luminance" maskUnits="userSpaceOnUse" x="0" y="0" width="62" height="123">
<path d="M60.7345 0.754883C27.2345 0.754883 0.072998 27.9111 0.072998 61.4111C0.072998 94.9111 27.2345 122.073 60.7345 122.073L61.0365 85.0466C48.0782 85.0466 37.573 74.5413 37.573 61.583C37.573 48.6299 48.0782 38.1247 61.0365 38.1247L60.7345 0.754883Z" fill="white"/>
</mask>
<g mask="url(#mask5_7067_5054)">
<path d="M0 0.681641H61.1094V122.182H0V0.681641Z" fill="#FF5656"/>
</g>
</g>
<mask id="mask6_7067_5054" style="mask-type:luminance" maskUnits="userSpaceOnUse" x="0" y="0" width="62" height="123">
<path d="M0 0.442383H61.1094V122.182H0V0.442383Z" fill="white"/>
</mask>
<g mask="url(#mask6_7067_5054)">
<mask id="mask7_7067_5054" style="mask-type:luminance" maskUnits="userSpaceOnUse" x="0" y="0" width="62" height="123">
<path d="M60.8073 122.145H60.7344C52.5365 122.145 44.5833 120.541 37.0938 117.374C29.8646 114.317 23.3698 109.937 17.7917 104.359C12.2135 98.7806 7.83333 92.2858 4.77604 85.0566C1.60417 77.5671 0 69.6139 0 61.4108C0 53.2129 1.60417 45.2598 4.77083 37.7754C7.83333 30.541 12.2083 24.0462 17.7865 18.4681C23.3646 12.89 29.8594 8.50976 37.0938 5.45247C44.5781 2.28581 52.5365 0.681641 60.7344 0.681641H60.8073V0.754557L61.1042 38.1973H61.0313C54.7813 38.1973 48.9115 40.6348 44.4948 45.0462C40.0781 49.4681 37.6458 55.3379 37.6458 61.5827C37.6458 67.8327 40.0781 73.7077 44.4948 78.1191C48.9115 82.541 54.7813 84.9681 61.0313 84.9681H61.1042V85.0462L60.8073 122.145ZM60.6615 0.827474C52.5052 0.83789 44.599 2.43685 37.151 5.58789C29.9375 8.63997 23.4583 13.0098 17.8906 18.5723C12.3281 24.1348 7.95833 30.6139 4.90625 37.8327C1.75 45.3014 0.145833 53.2337 0.145833 61.4108C0.145833 69.5931 1.75 77.5254 4.90625 84.9941C7.95833 92.2077 12.3281 98.6869 17.8906 104.255C23.4531 109.817 29.9375 114.187 37.151 117.239C44.599 120.385 52.5052 121.989 60.6615 121.999L60.9583 85.1191C54.7031 85.0983 48.8229 82.6556 44.3906 78.2233C39.9479 73.7806 37.5 67.8691 37.5 61.5827C37.5 55.3014 39.9479 49.39 44.3906 44.9421C48.8229 40.515 54.7031 38.0723 60.9583 38.0514L60.6615 0.827474Z" fill="white"/>
</mask>
<g mask="url(#mask7_7067_5054)">
<path d="M0 0.681641H61.1094V122.182H0V0.681641Z" fill="#FF5656"/>
</g>
</g>
<mask id="mask8_7067_5054" style="mask-type:luminance" maskUnits="userSpaceOnUse" x="70" y="0" width="53" height="52">
<path d="M70.6667 0H122.667V52H70.6667V0Z" fill="white"/>
</mask>
<g mask="url(#mask8_7067_5054)">
<mask id="mask9_7067_5054" style="mask-type:luminance" maskUnits="userSpaceOnUse" x="60" y="0" width="62" height="62">
<path d="M121.464 21.7552L81.7813 61.4375L60.8281 40.4792L100.505 0.796875L121.464 21.7552Z" fill="white"/>
</mask>
<g mask="url(#mask9_7067_5054)">
<mask id="mask10_7067_5054" style="mask-type:luminance" maskUnits="userSpaceOnUse" x="59" y="0" width="63" height="62">
<path d="M121.463 21.7555L81.3437 61.8753L59.9426 40.4795L100.068 0.354492L121.463 21.7555Z" fill="white"/>
</mask>
<g mask="url(#mask10_7067_5054)">
<mask id="mask11_7067_5054" style="mask-type:luminance" maskUnits="userSpaceOnUse" x="71" y="0" width="51" height="51">
<path d="M92.5052 50.7135L121.464 21.7552L100.443 0.734375L71.4844 29.6927L71.2969 50.901L92.5052 50.7135Z" fill="white"/>
</mask>
<g mask="url(#mask11_7067_5054)">
<path d="M92.505 50.7133L121.463 21.7549L100.443 0.734013L71.4841 29.6924L71.2966 50.9008L92.505 50.7133Z" stroke="#FF5656" stroke-width="10"/>
</g>
</g>
</g>
</g>
<path d="M201.731 82.7562V95.9854H146.606V24.7979H200.398V38.027H162.981V53.4854H196.023V66.2979H162.981V82.7562H201.731Z" fill="#231F20"/>
<path d="M237.218 74.5264L229.593 82.0472V95.9847H213.718V20.5264H229.593V63.2347L252.78 41.2764H271.697L248.905 64.4639L273.718 95.9847H254.509L237.218 74.5264Z" fill="#231F20"/>
<path d="M281.961 24.7979H298.44V82.5687H334.128V95.9854H281.961V24.7979Z" fill="#231F20"/>
<path d="M342.26 41.2764H358.135V95.9847H342.26V41.2764ZM350.197 33.6514C347.28 33.6514 344.905 32.8076 343.072 31.1097C341.239 29.417 340.322 27.3128 340.322 24.7972C340.322 22.2972 341.239 20.2035 343.072 18.5055C344.905 16.8128 347.28 15.9639 350.197 15.9639C353.114 15.9639 355.478 16.7764 357.301 18.4014C359.135 20.0264 360.051 22.0628 360.051 24.5055C360.051 27.1462 359.135 29.3337 357.301 31.068C355.478 32.792 353.114 33.6514 350.197 33.6514Z" fill="#231F20"/>
<path d="M406.14 40.4639C412.916 40.4639 418.39 42.5003 422.557 46.568C426.724 50.641 428.807 56.6722 428.807 64.6722V95.9847H412.953V67.1097C412.953 62.766 412 59.5264 410.099 57.4014C408.192 55.266 405.453 54.193 401.869 54.193C397.869 54.193 394.682 55.4326 392.307 57.9014C389.932 60.3753 388.744 64.0576 388.744 68.943V95.9847H372.869V41.2764H388.036V47.693C390.13 45.391 392.734 43.6097 395.849 42.3597C398.974 41.0993 402.401 40.4639 406.14 40.4639Z" fill="#231F20"/>
<path d="M496.744 68.8389C496.744 69.0368 496.64 70.4587 496.432 73.1097H455.057C455.791 76.5003 457.546 79.1826 460.328 81.1514C463.104 83.1097 466.562 84.0889 470.703 84.0889C473.546 84.0889 476.067 83.667 478.265 82.818C480.473 81.9743 482.526 80.6305 484.432 78.7972L492.869 87.943C487.713 93.8493 480.192 96.7972 470.307 96.7972C464.125 96.7972 458.661 95.5993 453.911 93.193C449.171 90.7764 445.515 87.4378 442.932 83.1722C440.359 78.8962 439.078 74.0472 439.078 68.6305C439.078 63.2712 440.348 58.443 442.89 54.1514C445.432 49.8493 448.921 46.4951 453.369 44.0889C457.812 41.6722 462.776 40.4639 468.265 40.4639C473.625 40.4639 478.473 41.6201 482.807 43.9222C487.14 46.2295 490.541 49.5368 493.015 53.8389C495.5 58.1462 496.744 63.1462 496.744 68.8389ZM468.369 52.4639C464.77 52.4639 461.75 53.4847 459.307 55.5264C456.875 57.5576 455.39 60.3337 454.848 63.8597H481.786C481.244 60.4014 479.75 57.641 477.307 55.568C474.875 53.5003 471.895 52.4639 468.369 52.4639Z" fill="#231F20"/>
</svg>
