<svg width="588" height="88" viewBox="0 0 588 88" fill="none" xmlns="http://www.w3.org/2000/svg">
<path d="M438.019 48.8935C435.423 33.7929 422.537 22.8433 407.378 22.8433C390.105 22.8433 376.049 37.0049 376.049 54.4094C376.049 62.7832 379.25 70.6542 385.062 76.5754C390.946 82.5634 398.867 85.8626 407.378 85.8626C419.336 85.8626 431.037 79.2949 435.947 69.8538L424.502 66.8265C420.464 71.6035 414.072 74.4563 407.383 74.4563C398.118 74.4563 390.9 68.8994 388.951 60.2844L388.905 60.1407C388.853 59.9303 388.812 59.72 388.771 59.5147L388.735 59.33C387.689 54.2195 388.376 50.4226 388.72 49.0321C388.828 48.5908 388.91 48.3496 388.91 48.3496L388.93 48.2829C390.69 41.2893 397.031 34.2649 407.265 34.2649C416.371 34.2649 423.891 40.3452 425.558 49.0474L425.605 49.2938H399.673C399.329 50.7561 398.749 54.3222 399.693 59.0838H438.168C438.896 55.8461 438.845 52.3313 438.019 48.9038V48.8935Z" fill="#231F20"/>
<path d="M145.071 54.4096C145.071 45.5483 141.767 37.3848 135.765 31.4226C130.188 25.8862 122.781 22.8435 114.881 22.8435C114.809 22.8435 114.742 22.8435 114.67 22.8435C106.78 22.9512 99.7932 26.2608 95.0018 32.1563L94.6273 32.613V4.1665H81.71V84.929H94.6273V76.4422L94.9967 76.8886C99.7984 82.6713 106.78 85.8577 114.665 85.8577C123.114 85.8577 130.876 82.5584 136.514 76.5757C142.029 70.7211 145.065 62.8502 145.065 54.4096H145.071ZM113.511 74.2205C102.835 74.2205 93.8219 65.1489 93.8219 54.4096C93.8219 43.6704 102.84 34.4858 113.511 34.4858C124.181 34.4858 132.969 43.4241 132.969 54.4096C132.969 65.3952 124.243 74.2205 113.511 74.2205Z" fill="#231F20"/>
<path d="M167.561 4.17139H154.644V84.9339H167.561V4.17139Z" fill="#231F20"/>
<path d="M325.528 27.7178C318.741 12.5454 304.701 3.12988 288.828 3.12988C266.184 3.12988 247.763 21.6632 247.763 44.4398C247.763 55.4562 252.015 65.7952 259.731 73.5636C267.467 81.3474 277.804 85.6369 288.828 85.6369C304.829 85.6369 318.823 76.3139 325.416 61.2799L312.483 57.7959C307.938 67.3551 299.329 72.835 288.828 72.835C273.043 72.835 261.142 60.6283 261.142 44.445C261.142 28.2617 273.043 15.8241 288.828 15.8241C299.124 15.8241 308.04 21.617 312.714 31.325L325.528 27.7281V27.7178Z" fill="#231F20"/>
<path d="M354.328 39.8117C358.879 36.4406 365.091 35.5787 371.416 37.431V23.6285C360.71 21.966 352.245 25.6911 348.162 33.8649L347.767 34.6602V23.8902H334.85V84.9392H347.767V53.9529C347.767 47.9701 350.096 42.9519 354.328 39.8169V39.8117Z" fill="#231F20"/>
<path d="M507.669 84.9339V4.17139H494.757V32.5152L494.382 32.0432C489.755 26.199 482.63 22.8432 474.832 22.8432C467.034 22.8432 459.047 26.1014 453.332 32.0124C447.592 37.949 444.432 45.9021 444.432 54.4094C444.432 71.7523 458.067 85.8626 474.832 85.8626C482.763 85.8626 489.709 82.6762 494.382 76.8935L494.757 76.4317V84.9339H507.669ZM475.996 74.2203C465.018 74.2203 456.42 65.518 456.42 54.4094C456.42 43.3007 465.203 34.4855 475.996 34.4855C486.79 34.4855 495.685 43.6085 495.685 54.4094C495.685 65.2102 486.672 74.2203 475.996 74.2203Z" fill="#231F20"/>
<path d="M534.787 23.8901H521.869V84.9392H534.787V23.8901Z" fill="#231F20"/>
<path d="M528.503 0C523.742 0 520.018 3.57632 520.018 8.13781C520.018 12.6993 523.665 16.2808 528.503 16.2808C533.34 16.2808 536.875 12.7814 536.875 8.13781C536.875 3.49423 533.197 0 528.503 0Z" fill="#231F20"/>
<path d="M562.576 82.1939C568.29 86.5399 577.129 87.366 587.482 84.5182V72.096C580.264 74.5179 574.682 74.5332 571.333 72.1319C569.229 70.6285 568.121 68.2272 568.121 65.1897V35.0602H587.02V23.8797H568.121V5.39258L555.435 9.09717V23.8746H543.841V35.0551H555.435V65.3025C555.435 72.7938 557.907 78.633 562.581 82.1837L562.576 82.1939Z" fill="#231F20"/>
<path d="M239.571 48.8935C236.975 33.7929 224.088 22.8433 208.934 22.8433C191.662 22.8433 177.605 37.0049 177.605 54.4094C177.605 62.7832 180.807 70.6542 186.619 76.5754C192.503 82.5634 200.424 85.8626 208.934 85.8626C220.892 85.8626 232.594 79.2949 237.503 69.8538L226.058 66.8265C222.021 71.6035 215.629 74.4563 208.94 74.4563C199.675 74.4563 192.457 68.8994 190.507 60.2793L190.461 60.1356C190.405 59.8996 190.359 59.6738 190.312 59.4429L190.287 59.3249C189.24 54.2195 189.928 50.4226 190.271 49.0269C190.379 48.5857 190.461 48.3393 190.461 48.3393L190.482 48.2726C192.241 41.279 198.582 34.2495 208.816 34.2495C217.922 34.2495 225.443 40.3298 227.11 49.0321L227.156 49.2784H201.224C200.88 50.7458 200.301 54.3119 201.245 59.0684H239.72C240.448 55.8307 240.392 52.3159 239.566 48.8884L239.571 48.8935Z" fill="#231F20"/>
<path d="M69.9976 71.9953H54.2389V51.0561C54.2389 44.2588 48.7289 38.7477 41.933 38.7477H20.998V22.9858H43.766C58.2552 22.9858 70.0003 34.7333 70.0003 49.2255V71.998L69.9976 71.9953Z" fill="#231F20"/>
<path d="M45.4976 83.3296V71.9953H20.1278C17.7148 71.9953 15.7559 70.0387 15.7559 67.6225C15.7559 65.2089 17.7121 63.2496 20.1278 63.2496H45.4976V51.9153C45.4976 49.469 43.5141 47.4878 41.071 47.4878H20.1306C9.01198 47.4878 0 56.5016 0 67.6225C0 78.7433 9.01198 87.7571 20.1306 87.7571H41.071C43.5169 87.7571 45.4976 85.7732 45.4976 83.3296Z" fill="#231F20"/>
</svg>
